PathFileType	4	(X/Y/Z)	Run_200 02
DataRate	CameraRate	NumFrames	NumMarkers	Units	OrigDataRate	OrigDataStartFrame	OrigNumFrames
120	120	4	42	mm	120	172	128
Frame#	Time	LASI			RASI			LPSI			RPSI			RTH1			RTH2			RTH3			LTH1			LTH2			LTH3			RTB1			RTB2			RTB3			LTB1			LTB2			LTB3			RCAL			RTOE			RMT5			LCAL			LTOE			LMT5			LACR			RACR			CLAV			C7			RUA1			RUA2			RUA3			RLEL			RMEL			LUA1			LUA2			LUA3			LLEL			LMEL			RFAsuperior			RFAradius			RFAulna			LFAsuperior			LFAradius			LFAulna		
		X1	Y1	Z1	X2	Y2	Z2	X3	Y3	Z3	X4	Y4	Z4	X5	Y5	Z5	X6	Y6	Z6	X7	Y7	Z7	X8	Y8	Z8	X9	Y9	Z9	X10	Y10	Z10	X11	Y11	Z11	X12	Y12	Z12	X13	Y13	Z13	X14	Y14	Z14	X15	Y15	Z15	X16	Y16	Z16	X17	Y17	Z17	X18	Y18	Z18	X19	Y19	Z19	X20	Y20	Z20	X21	Y21	Z21	X22	Y22	Z22	X23	Y23	Z23	X24	Y24	Z24	X25	Y25	Z25	X26	Y26	Z26	X27	Y27	Z27	X28	Y28	Z28	X29	Y29	Z29	X30	Y30	Z30	X31	Y31	Z31	X32	Y32	Z32	X33	Y33	Z33	X34	Y34	Z34	X35	Y35	Z35	X36	Y36	Z36	X37	Y37	Z37	X38	Y38	Z38	X39	Y39	Z39	X40	Y40	Z40	X41	Y41	Z41	X42	Y42	Z42	

172	  1.433333	909.036907	1068.399420	-462.782371	924.488714	1052.387170	-204.225802	728.616087	1095.077773	-364.777892	735.126181	1084.251726	-283.267599	869.720479	873.090297	-165.473870	915.536685	766.912123	-178.484846	844.835951	654.235368	-198.896378	888.004570	862.658391	-514.562476	982.273367	762.953281	-498.934380	953.985622	639.192835	-473.005232	778.917055	412.386911	-274.849659	711.551850	404.973079	-202.860029	646.317329	328.042648	-269.016211	1028.233294	416.323981	-393.135663	992.380759	330.914080	-443.477997	984.995802	221.308190	-370.039591	441.831660	403.691463	-266.180564	492.416889	176.009411	-275.861704	448.320972	232.541123	-186.901451	850.593039	 98.541154	-355.613578	1085.031660	 79.097821	-339.261232	1014.491835	 55.111038	-429.676658	907.027264	1518.387287	-524.193006	920.154333	1540.764715	-180.323898	961.277811	1471.807643	-320.049678	839.781268	1567.620353	-347.958541	897.913900	1438.774671	-98.347900	885.897131	1349.035470	-98.580431	818.484812	1357.851369	-56.663032	789.004317	1227.662825	 -6.265444	742.653378	1220.262346	-78.032342	870.729236	1435.574663	-598.052763	865.072415	1363.998940	-594.888608	768.298381	1372.117810	-590.209864	725.539283	1217.894158	-652.670715	680.222670	1217.429545	-577.669984	889.812188	1208.512858	-43.085674	1011.234760	1202.804153	-176.055868	1016.913393	1146.272276	-127.670525	815.734149	1189.684047	-628.116059	953.789423	1164.452776	-509.023266	942.720245	1098.867912	-537.583277	
173	  1.441667	906.917884	1065.208899	-462.270108	923.037805	1046.949516	-202.570464	726.753266	1090.240361	-362.983151	733.217690	1078.821809	-282.260824	871.715985	868.391610	-165.690073	920.384646	764.345278	-178.574288	852.737826	649.661940	-200.382599	885.568548	859.659348	-515.089581	980.408691	762.483374	-499.467307	953.274936	636.803325	-474.966040	791.681667	411.675717	-275.728261	724.599576	404.776043	-202.972924	659.767930	327.511929	-269.041538	1024.081847	413.026318	-394.630343	984.514589	328.729404	-445.001906	973.812736	219.390352	-371.509453	453.355163	407.703675	-264.971262	503.262705	179.818806	-273.740551	460.709036	237.236529	-184.396491	834.664885	 99.323154	-356.167021	1069.261836	 77.821892	-339.639714	997.986985	 54.422005	-430.403992	906.074173	1511.550073	-525.780373	915.720257	1535.565289	-179.365587	961.059021	1467.802622	-319.754607	839.631538	1563.502631	-349.747378	893.589609	1431.407447	-98.725476	879.448932	1341.603771	-100.308603	812.352877	1351.056391	-57.978254	780.237098	1221.736898	 -9.204698	735.583058	1214.783820	-81.620235	874.394432	1424.429750	-599.745032	869.080216	1352.914098	-594.526273	772.638651	1358.870544	-594.543203	734.994447	1203.780480	-655.849431	688.560795	1202.311960	-581.684480	881.006237	1197.320527	-43.818974	1005.143029	1183.384123	-173.378346	1007.782292	1128.747644	-123.073131	824.979011	1175.900737	-630.699849	961.611905	1152.406834	-507.992144	951.740152	1086.970788	-537.017071	
174	  1.450000	905.166475	1061.519800	-462.357907	920.917781	1042.640427	-200.864626	725.296455	1086.107068	-361.339034	731.010742	1074.449278	-281.139213	873.271039	864.813429	-165.741246	925.414771	762.432375	-178.625677	860.451435	646.466677	-201.754107	882.858966	856.363308	-515.750964	977.705894	760.045498	-500.393458	950.259607	633.047807	-475.970344	804.991458	411.215424	-276.223090	738.153065	404.952491	-202.832209	673.701893	327.374436	-268.812704	1018.896218	408.565410	-396.388053	975.276256	325.278021	-446.518780	961.698371	216.580735	-372.769193	465.328857	410.356225	-263.934881	516.343869	182.678246	-271.832610	474.465035	240.493803	-182.283268	818.548261	100.014889	-356.774048	1053.208112	 76.684628	-340.064973	981.385830	 53.829561	-431.195005	905.130519	1505.390697	-526.853206	912.008255	1530.904696	-178.603426	960.734868	1464.633894	-319.418692	839.378408	1559.722631	-351.075918	889.051821	1425.506800	-99.168627	873.209964	1335.469908	-102.236708	806.313096	1345.157999	-59.750096	771.506726	1216.432088	-12.649151	728.493801	1209.896098	-85.623789	878.046357	1414.413658	-600.672152	873.386228	1342.579788	-593.467265	777.473171	1346.565128	-598.569074	745.403171	1190.220744	-658.692488	697.823930	1187.465381	-585.506958	872.046041	1186.607658	-44.455365	998.459289	1163.372274	-170.465139	997.929042	1111.094749	-118.045368	835.069461	1162.405126	-632.806250	970.028663	1140.294223	-506.430289	961.225990	1074.978352	-536.020983	
175	  1.458333	903.719069	1057.624495	-462.491479	918.250986	1039.362576	-199.756024	724.137656	1082.797674	-360.258125	728.465458	1071.051477	-280.284198	874.283604	862.006297	-165.834947	930.608064	760.967028	-178.679117	868.267628	644.265887	-202.763577	880.251017	853.438604	-516.633921	974.426582	755.578418	-502.029777	945.592623	628.628725	-476.329613	818.705255	411.109758	-276.366403	752.126293	405.311807	-202.501434	688.033899	327.438277	-268.393583	1012.485271	403.787838	-397.931578	965.222258	321.515690	-447.853644	948.763447	213.764350	-373.794885	477.737304	411.633405	-263.049751	531.322562	184.521763	-270.120199	489.290774	242.317038	-180.551347	802.163617	100.589143	-357.368608	1036.743461	 75.998484	-340.480646	964.666889	 53.472293	-431.898849	904.531317	1499.872273	-527.557508	909.299680	1526.873231	-178.174099	960.253134	1461.472563	-319.101812	838.725980	1556.205646	-352.022458	884.314702	1421.202501	-99.695394	867.338633	1330.801389	-104.270957	800.433832	1340.441869	-62.110768	762.893371	1211.993208	-16.552510	721.645948	1205.983587	-90.073236	881.031595	1406.111549	-600.591675	878.113791	1333.579122	-591.972311	782.664054	1335.777118	-601.703950	756.878228	1177.670244	-660.958857	707.877975	1173.414706	-588.969970	863.092164	1176.937975	-44.778899	991.109601	1143.260711	-167.181045	987.310286	1093.735962	-112.497514	846.272250	1149.942442	-633.799141	979.147075	1128.622397	-504.500222	971.198977	1063.371538	-534.618266	
